- 
http://www.Speed.Cd 
       
http://www.Speed.Cd      fast  and The Hottest Private Tracker on the net

(((--Submit for invite!!--)))

Please Seed back to make the speed Faster!!!

------------------nfo--------------------------
-[img]http://img263.imageshack.us/img263/9205/thesmurfsposter2.jpg[/img]
[pre]
     _______.     ___      .___  ___.  __    __  .______          ___       __  
    /       |    /   \     |   \/   | |  |  |  | |   _  \        /   \     |  | 
   |   (----`   /  ^  \    |  \  /  | |  |  |  | |  |_)  |      /  ^  \    |  | 
    \   \      /  /_\  \   |  |\/|  | |  |  |  | |      /      /  /_\  \   |  | 
.----)   |    /  _____  \  |  |  |  | |  `--'  | |  |\  \----./  _____  \  |  | 
|_______/    /__/     \__\ |__|  |__|  \______/  | _| `._____/__/     \__\ |__| 
                                                                                

The.Smurfs.2011.R5.LiNE.XViD-SAMURAi

ANOTHER QUALiTY SAMURAi RELEASE!!!

Encoder........: SAMURAi
Video Codec....: XViD
Audio Codec....: Mp3
Audio Bitrate..: 128 kb/s
Subtitles......: N/a
Resolution.....: 720 x 400
Runtime........: 103 min
Language.......: English
IMDB Link......: http://www.imdb.com/title/tt0472181/
Genre..........: Animation | Adventure | Comedy
Ratings........: 5/1 Users: (7,979 votes)
Stars..........: Hank Azaria, Katy Perry and Jonathan Winters 
Plot...........: When the evil wizard Gargamel chases the tiny blue Smurfs out of 
their village, they tumble from their magical world and into ours.




Video Source: The Smurfs Russian DVDRiP
Audio Source: The Smurfs 2011 R5 LiNE XviD - ViSUALiSE
 
Complete name                    : C:\Users\root\Desktop\BITTORRENT\My Encodes\The.Smurfs.2011.R5.LiNE.XViD-SAMURAi\The.Smurfs.2011.R5.LiNE.XViD-SAMURAi.avi
Format                           : AVI
Format/Info                      : Audio Video Interleave
File size                        : 1.37 GiB
Duration                         : 1h 38mn
Overall bit rate                 : 1 989 Kbps
Writing application              : VirtualDubMod 1.5.10.3 | www.virtualdub-fr.org || (build 2550/release)
Writing library                  : VirtualDub build 32842/release

Video
ID                               : 0
Format                           : MPEG-4 Visual
Format profile                   : Advanced Simple@L5
Format settings, BVOP            : 2
Format settings, QPel            : No
Format settings, GMC             : No warppoints
Format settings, Matrix          : Default (H.263)
Muxing mode                      : Packed bitstream
Codec ID                         : XVID
Codec ID/Hint                    : XviD
Duration                         : 1h 38mn
Bit rate                         : 1 852 Kbps
Width                            : 720 pixels
Height                           : 400 pixels
Display aspect ratio             : 16:9
Frame rate                       : 25.000 fps
Color space                      : YUV
Chroma subsampling               : 4:2:0
Bit depth                        : 8 bits
Scan type                        : Progressive
Compression mode                 : Lossy
Bits/(Pixel*Frame)               : 0.257
Stream size                      : 1.28 GiB (93%)
Writing library                  : XviD 64

Audio
ID                               : 1
Format                           : MPEG Audio
Format version                   : Version 1
Format profile                   : Layer 3
Mode                             : Joint stereo
Mode extension                   : MS Stereo
Codec ID                         : 55
Codec ID/Hint                    : MP3
Duration                         : 1h 38mn
Bit rate mode                    : Constant
Bit rate                         : 128 Kbps
Channel(s)                       : 2 channels
Sampling rate                    : 44.1 KHz
Compression mode                 : Lossy
Stream size                      : 90.3 MiB (6%)
Alignment                        : Split accross interleaves
Interleave, duration             : 40 ms (1.00 video frame)
Interleave, preload duration     : 500 ms
Writing library                  : LAME3.98r
Encoding settings                : -m j -V 4 -q 2 -lowpass 17 -b 128






Release Notes:
Alright, here we go with my encode of "The Smurfs" 2011 R5 LiNE. needed some work
added brightness/contrast filter and then sharpen filter. then encoded it through
vdub enjoy. also thanks to ViSUALiSE for the audio!



Screenshots:
[img]http://img827.imageshack.us/img827/2959/vlcsnap2011092003h47m07.png[/img]
[img]http://img192.imageshack.us/img192/3012/vlcsnap2011092003h47m22.png[/img]
[img]http://img687.imageshack.us/img687/4575/vlcsnap2011092003h48m30.png[/img]
[img]http://img402.imageshack.us/img402/6188/vlcsnap2011092003h49m09.png[/img]
[img]http://img402.imageshack.us/img402/6188/vlcsnap2011092003h49m09.png[/img]
[img]http://img853.imageshack.us/img853/5946/vlcsnap2011092003h50m06.png[/img]



Greetz:
ViSiON, SiC, SANTi, IMAGiNE, MEM, LKRG, DTRG, FLAWL3SS, WBZ, NPW,
CM8, UnKnown, ETRG, SaM, Blackjesus, NOiR, EP1C, EMBER...and other p2p
groups past and present good job!

[/pre]